<svg viewBox="0 0 401 176" fill="none" xmlns="http://www.w3.org/2000/svg">
<path d="M0 12C0 5.37258 5.37258 0 12 0H389C395.627 0 401 5.37258 401 12V164C401 170.627 395.627 176 389 176H12C5.37258 176 0 170.627 0 164V12Z" fill="#AE2317"/>
<path d="M71.2727 132V38.9091H102.727C110.03 38.9091 116 40.2273 120.636 42.8636C125.303 45.4697 128.758 49 131 53.4545C133.242 57.9091 134.364 62.8788 134.364 68.3636C134.364 73.8485 133.242 78.8333 131 83.3182C128.788 87.803 125.364 91.3788 120.727 94.0455C116.091 96.6818 110.152 98 102.909 98H80.3636V88H102.545C107.545 88 111.561 87.1364 114.591 85.4091C117.621 83.6818 119.818 81.3485 121.182 78.4091C122.576 75.4394 123.273 72.0909 123.273 68.3636C123.273 64.6364 122.576 61.303 121.182 58.3636C119.818 55.4242 117.606 53.1212 114.545 51.4545C111.485 49.7576 107.424 48.9091 102.364 48.9091H82.5455V132H71.2727ZM178.682 133.455C172.379 133.455 166.848 131.955 162.091 128.955C157.364 125.955 153.667 121.758 151 116.364C148.364 110.97 147.045 104.667 147.045 97.4545C147.045 90.1818 148.364 83.8333 151 78.4091C153.667 72.9848 157.364 68.7727 162.091 65.7727C166.848 62.7727 172.379 61.2727 178.682 61.2727C184.985 61.2727 190.5 62.7727 195.227 65.7727C199.985 68.7727 203.682 72.9848 206.318 78.4091C208.985 83.8333 210.318 90.1818 210.318 97.4545C210.318 104.667 208.985 110.97 206.318 116.364C203.682 121.758 199.985 125.955 195.227 128.955C190.5 131.955 184.985 133.455 178.682 133.455ZM178.682 123.818C183.47 123.818 187.409 122.591 190.5 120.136C193.591 117.682 195.879 114.455 197.364 110.455C198.848 106.455 199.591 102.121 199.591 97.4545C199.591 92.7879 198.848 88.4394 197.364 84.4091C195.879 80.3788 193.591 77.1212 190.5 74.6364C187.409 72.1515 183.47 70.9091 178.682 70.9091C173.894 70.9091 169.955 72.1515 166.864 74.6364C163.773 77.1212 161.485 80.3788 160 84.4091C158.515 88.4394 157.773 92.7879 157.773 97.4545C157.773 102.121 158.515 106.455 160 110.455C161.485 114.455 163.773 117.682 166.864 120.136C169.955 122.591 173.894 123.818 178.682 123.818ZM255.057 133.455C248.754 133.455 243.223 131.955 238.466 128.955C233.739 125.955 230.042 121.758 227.375 116.364C224.739 110.97 223.42 104.667 223.42 97.4545C223.42 90.1818 224.739 83.8333 227.375 78.4091C230.042 72.9848 233.739 68.7727 238.466 65.7727C243.223 62.7727 248.754 61.2727 255.057 61.2727C261.36 61.2727 266.875 62.7727 271.602 65.7727C276.36 68.7727 280.057 72.9848 282.693 78.4091C285.36 83.8333 286.693 90.1818 286.693 97.4545C286.693 104.667 285.36 110.97 282.693 116.364C280.057 121.758 276.36 125.955 271.602 128.955C266.875 131.955 261.36 133.455 255.057 133.455ZM255.057 123.818C259.845 123.818 263.784 122.591 266.875 120.136C269.966 117.682 272.254 114.455 273.739 110.455C275.223 106.455 275.966 102.121 275.966 97.4545C275.966 92.7879 275.223 88.4394 273.739 84.4091C272.254 80.3788 269.966 77.1212 266.875 74.6364C263.784 72.1515 259.845 70.9091 255.057 70.9091C250.269 70.9091 246.33 72.1515 243.239 74.6364C240.148 77.1212 237.86 80.3788 236.375 84.4091C234.89 88.4394 234.148 92.7879 234.148 97.4545C234.148 102.121 234.89 106.455 236.375 110.455C237.86 114.455 240.148 117.682 243.239 120.136C246.33 122.591 250.269 123.818 255.057 123.818ZM303.068 132V62.1818H313.432V72.7273H314.159C315.432 69.2727 317.735 66.4697 321.068 64.3182C324.402 62.1667 328.159 61.0909 332.341 61.0909C333.129 61.0909 334.114 61.1061 335.295 61.1364C336.477 61.1667 337.371 61.2121 337.977 61.2727V72.1818C337.614 72.0909 336.78 71.9545 335.477 71.7727C334.205 71.5606 332.856 71.4545 331.432 71.4545C328.038 71.4545 325.008 72.1667 322.341 73.5909C319.705 74.9848 317.614 76.9242 316.068 79.4091C314.553 81.8636 313.795 84.6667 313.795 87.8182V132H303.068Z" fill="white"/>
</svg>
