<svg viewBox="0 0 401 176" fill="none" xmlns="http://www.w3.org/2000/svg">
<path d="M0 12C0 5.37258 5.37258 0 12 0H389C395.627 0 401 5.37258 401 12V164C401 170.627 395.627 176 389 176H12C5.37258 176 0 170.627 0 164V12Z" fill="#43964F"/>
<path d="M138.091 44.9091V138H127.182L76.4545 64.9091H75.5455V138H64.2727V44.9091H75.1818L126.091 118.182H127V44.9091H138.091ZM160.648 138V44.9091H216.83V54.9091H171.92V86.3636H213.92V96.3636H171.92V128H217.557V138H160.648ZM254.057 138L228.602 44.9091H240.057L259.511 120.727H260.42L280.239 44.9091H292.966L312.784 120.727H313.693L333.148 44.9091H344.602L319.148 138H307.511L286.966 63.8182H286.239L265.693 138H254.057Z" fill="white"/>
</svg>
