<svg  viewBox="0 0 401 176" fill="none" xmlns="http://www.w3.org/2000/svg">
<path d="M0 12C0 5.37258 5.37258 0 12 0H389C395.627 0 401 5.37258 401 12V164C401 170.627 395.627 176 389 176H12C5.37258 176 0 170.627 0 164V12Z" fill="#FFD631"/>
<path d="M111.909 71C110.909 67.9394 109.591 65.197 107.955 62.7727C106.348 60.3182 104.424 58.2273 102.182 56.5C99.9697 54.7727 97.4545 53.4545 94.6364 52.5454C91.8182 51.6364 88.7273 51.1818 85.3636 51.1818C79.8485 51.1818 74.8333 52.6061 70.3182 55.4545C65.803 58.303 62.2121 62.5 59.5455 68.0455C56.8788 73.5909 55.5455 80.3939 55.5455 88.4545C55.5455 96.5151 56.8939 103.318 59.5909 108.864C62.2879 114.409 65.9394 118.606 70.5455 121.455C75.1515 124.303 80.3333 125.727 86.0909 125.727C91.4242 125.727 96.1212 124.591 100.182 122.318C104.273 120.015 107.455 116.773 109.727 112.591C112.03 108.379 113.182 103.424 113.182 97.7273L116.636 98.4545H88.6364V88.4545H124.091V98.4545C124.091 106.121 122.455 112.788 119.182 118.455C115.939 124.121 111.455 128.515 105.727 131.636C100.03 134.727 93.4849 136.273 86.0909 136.273C77.8485 136.273 70.6061 134.333 64.3636 130.455C58.1515 126.576 53.303 121.061 49.8182 113.909C46.3636 106.758 44.6364 98.2727 44.6364 88.4545C44.6364 81.0909 45.6212 74.4697 47.5909 68.5909C49.5909 62.6818 52.4091 57.6515 56.0455 53.5C59.6818 49.3485 63.9848 46.1667 68.9545 43.9545C73.9242 41.7424 79.3939 40.6364 85.3636 40.6364C90.2727 40.6364 94.8485 41.3788 99.0909 42.8636C103.364 44.3182 107.167 46.3939 110.5 49.0909C113.864 51.7576 116.667 54.9545 118.909 58.6818C121.152 62.3788 122.697 66.4848 123.545 71H111.909ZM170.307 136.455C164.004 136.455 158.473 134.955 153.716 131.955C148.989 128.955 145.292 124.758 142.625 119.364C139.989 113.97 138.67 107.667 138.67 100.455C138.67 93.1818 139.989 86.8333 142.625 81.4091C145.292 75.9848 148.989 71.7727 153.716 68.7727C158.473 65.7727 164.004 64.2727 170.307 64.2727C176.61 64.2727 182.125 65.7727 186.852 68.7727C191.61 71.7727 195.307 75.9848 197.943 81.4091C200.61 86.8333 201.943 93.1818 201.943 100.455C201.943 107.667 200.61 113.97 197.943 119.364C195.307 124.758 191.61 128.955 186.852 131.955C182.125 134.955 176.61 136.455 170.307 136.455ZM170.307 126.818C175.095 126.818 179.034 125.591 182.125 123.136C185.216 120.682 187.504 117.455 188.989 113.455C190.473 109.455 191.216 105.121 191.216 100.455C191.216 95.7879 190.473 91.4394 188.989 87.4091C187.504 83.3788 185.216 80.1212 182.125 77.6364C179.034 75.1515 175.095 73.9091 170.307 73.9091C165.519 73.9091 161.58 75.1515 158.489 77.6364C155.398 80.1212 153.11 83.3788 151.625 87.4091C150.14 91.4394 149.398 95.7879 149.398 100.455C149.398 105.121 150.14 109.455 151.625 113.455C153.11 117.455 155.398 120.682 158.489 123.136C161.58 125.591 165.519 126.818 170.307 126.818ZM246.682 136.455C240.379 136.455 234.848 134.955 230.091 131.955C225.364 128.955 221.667 124.758 219 119.364C216.364 113.97 215.045 107.667 215.045 100.455C215.045 93.1818 216.364 86.8333 219 81.4091C221.667 75.9848 225.364 71.7727 230.091 68.7727C234.848 65.7727 240.379 64.2727 246.682 64.2727C252.985 64.2727 258.5 65.7727 263.227 68.7727C267.985 71.7727 271.682 75.9848 274.318 81.4091C276.985 86.8333 278.318 93.1818 278.318 100.455C278.318 107.667 276.985 113.97 274.318 119.364C271.682 124.758 267.985 128.955 263.227 131.955C258.5 134.955 252.985 136.455 246.682 136.455ZM246.682 126.818C251.47 126.818 255.409 125.591 258.5 123.136C261.591 120.682 263.879 117.455 265.364 113.455C266.848 109.455 267.591 105.121 267.591 100.455C267.591 95.7879 266.848 91.4394 265.364 87.4091C263.879 83.3788 261.591 80.1212 258.5 77.6364C255.409 75.1515 251.47 73.9091 246.682 73.9091C241.894 73.9091 237.955 75.1515 234.864 77.6364C231.773 80.1212 229.485 83.3788 228 87.4091C226.515 91.4394 225.773 95.7879 225.773 100.455C225.773 105.121 226.515 109.455 228 113.455C229.485 117.455 231.773 120.682 234.864 123.136C237.955 125.591 241.894 126.818 246.682 126.818ZM321.057 136.455C315.239 136.455 310.102 134.985 305.648 132.045C301.193 129.076 297.708 124.894 295.193 119.5C292.678 114.076 291.42 107.667 291.42 100.273C291.42 92.9394 292.678 86.5758 295.193 81.1818C297.708 75.7879 301.208 71.6212 305.693 68.6818C310.178 65.7424 315.36 64.2727 321.239 64.2727C325.784 64.2727 329.375 65.0303 332.011 66.5455C334.678 68.0303 336.708 69.7273 338.102 71.6364C339.527 73.5151 340.633 75.0606 341.42 76.2727H342.33V41.9091H353.057V135H342.693V124.273H341.42C340.633 125.545 339.511 127.152 338.057 129.091C336.602 131 334.527 132.712 331.83 134.227C329.133 135.712 325.542 136.455 321.057 136.455ZM322.511 126.818C326.814 126.818 330.451 125.697 333.42 123.455C336.39 121.182 338.648 118.045 340.193 114.045C341.739 110.015 342.511 105.364 342.511 100.091C342.511 94.8788 341.754 90.3182 340.239 86.4091C338.723 82.4697 336.481 79.4091 333.511 77.2273C330.542 75.0151 326.875 73.9091 322.511 73.9091C317.966 73.9091 314.178 75.0758 311.148 77.4091C308.148 79.7121 305.89 82.8485 304.375 86.8182C302.89 90.7576 302.148 95.1818 302.148 100.091C302.148 105.061 302.905 109.576 304.42 113.636C305.966 117.667 308.239 120.879 311.239 123.273C314.269 125.636 318.027 126.818 322.511 126.818Z" fill="white"/>
</svg>
