<svg viewBox="0 0 401 176" fill="none" xmlns="http://www.w3.org/2000/svg">
<path d="M0 12C0 5.37258 5.37258 0 12 0H389C395.627 0 401 5.37258 401 12V164C401 170.627 395.627 176 389 176H12C5.37258 176 0 170.627 0 164V12Z" fill="#EA3323"/>
<path d="M86.2727 132V38.9091H118.818C125.303 38.9091 130.652 40.0303 134.864 42.2727C139.076 44.4848 142.212 47.4697 144.273 51.2273C146.333 54.9545 147.364 59.0909 147.364 63.6364C147.364 67.6364 146.652 70.9394 145.227 73.5455C143.833 76.1515 141.985 78.2121 139.682 79.7273C137.409 81.2424 134.939 82.3636 132.273 83.0909V84C135.121 84.1818 137.985 85.1818 140.864 87C143.742 88.8182 146.152 91.4242 148.091 94.8182C150.03 98.2121 151 102.364 151 107.273C151 111.939 149.939 116.136 147.818 119.864C145.697 123.591 142.348 126.545 137.773 128.727C133.197 130.909 127.242 132 119.909 132H86.2727ZM97.5455 122H119.909C127.273 122 132.5 120.576 135.591 117.727C138.712 114.848 140.273 111.364 140.273 107.273C140.273 104.121 139.47 101.212 137.864 98.5455C136.258 95.8485 133.97 93.697 131 92.0909C128.03 90.4545 124.515 89.6364 120.455 89.6364H97.5455V122ZM97.5455 79.8182H118.455C121.848 79.8182 124.909 79.1515 127.636 77.8182C130.394 76.4848 132.576 74.6061 134.182 72.1818C135.818 69.7576 136.636 66.9091 136.636 63.6364C136.636 59.5455 135.212 56.0758 132.364 53.2273C129.515 50.3485 125 48.9091 118.818 48.9091H97.5455V79.8182ZM188.614 133.636C184.189 133.636 180.174 132.803 176.568 131.136C172.962 129.439 170.098 127 167.977 123.818C165.856 120.606 164.795 116.727 164.795 112.182C164.795 108.182 165.583 104.939 167.159 102.455C168.735 99.9394 170.841 97.9697 173.477 96.5455C176.114 95.1212 179.023 94.0606 182.205 93.3636C185.417 92.6364 188.644 92.0606 191.886 91.6364C196.129 91.0909 199.568 90.6818 202.205 90.4091C204.871 90.1061 206.811 89.6061 208.023 88.9091C209.265 88.2121 209.886 87 209.886 85.2727V84.9091C209.886 80.4242 208.659 76.9394 206.205 74.4545C203.78 71.9697 200.098 70.7273 195.159 70.7273C190.038 70.7273 186.023 71.8485 183.114 74.0909C180.205 76.3333 178.159 78.7273 176.977 81.2727L166.795 77.6364C168.614 73.3939 171.038 70.0909 174.068 67.7273C177.129 65.3333 180.462 63.6667 184.068 62.7273C187.705 61.7576 191.28 61.2727 194.795 61.2727C197.038 61.2727 199.614 61.5455 202.523 62.0909C205.462 62.6061 208.295 63.6818 211.023 65.3182C213.78 66.9545 216.068 69.4242 217.886 72.7273C219.705 76.0303 220.614 80.4545 220.614 86V132H209.886V122.545H209.341C208.614 124.061 207.402 125.682 205.705 127.409C204.008 129.136 201.75 130.606 198.932 131.818C196.114 133.03 192.674 133.636 188.614 133.636ZM190.25 124C194.492 124 198.068 123.167 200.977 121.5C203.917 119.833 206.129 117.682 207.614 115.045C209.129 112.409 209.886 109.636 209.886 106.727V96.9091C209.432 97.4545 208.432 97.9545 206.886 98.4091C205.371 98.8333 203.614 99.2121 201.614 99.5455C199.644 99.8485 197.72 100.121 195.841 100.364C193.992 100.576 192.492 100.758 191.341 100.909C188.553 101.273 185.947 101.864 183.523 102.682C181.129 103.47 179.189 104.667 177.705 106.273C176.25 107.848 175.523 110 175.523 112.727C175.523 116.455 176.902 119.273 179.659 121.182C182.447 123.061 185.977 124 190.25 124ZM266.557 133.455C260.739 133.455 255.602 131.985 251.148 129.045C246.693 126.076 243.208 121.894 240.693 116.5C238.178 111.076 236.92 104.667 236.92 97.2727C236.92 89.9394 238.178 83.5758 240.693 78.1818C243.208 72.7879 246.708 68.6212 251.193 65.6818C255.678 62.7424 260.86 61.2727 266.739 61.2727C271.284 61.2727 274.875 62.0303 277.511 63.5455C280.178 65.0303 282.208 66.7273 283.602 68.6364C285.027 70.5151 286.133 72.0606 286.92 73.2727H287.83V38.9091H298.557V132H288.193V121.273H286.92C286.133 122.545 285.011 124.152 283.557 126.091C282.102 128 280.027 129.712 277.33 131.227C274.633 132.712 271.042 133.455 266.557 133.455ZM268.011 123.818C272.314 123.818 275.951 122.697 278.92 120.455C281.89 118.182 284.148 115.045 285.693 111.045C287.239 107.015 288.011 102.364 288.011 97.0909C288.011 91.8788 287.254 87.3182 285.739 83.4091C284.223 79.4697 281.981 76.4091 279.011 74.2273C276.042 72.0151 272.375 70.9091 268.011 70.9091C263.466 70.9091 259.678 72.0758 256.648 74.4091C253.648 76.7121 251.39 79.8485 249.875 83.8182C248.39 87.7576 247.648 92.1818 247.648 97.0909C247.648 102.061 248.405 106.576 249.92 110.636C251.466 114.667 253.739 117.879 256.739 120.273C259.769 122.636 263.527 123.818 268.011 123.818Z" fill="white"/>
</svg>
