<svg width="214" height="72" viewBox="0 0 214 72" fill="none" xmlns="http://www.w3.org/2000/svg">
<path d="M0.0320001 71V19.16H20.128V24.536H7.264V41.688H17.696V46.808H7.264V65.816H20.256V71H0.0320001ZM35.3805 71.512C32.3512 71.512 30.0472 70.9147 28.4685 69.72C26.9325 68.4827 25.8872 66.7547 25.3325 64.536C24.8205 62.3173 24.5645 59.736 24.5645 56.792V48.28C24.5645 45.1653 24.8418 42.52 25.3965 40.344C25.9512 38.1253 26.9965 36.44 28.5325 35.288C30.1112 34.0933 32.3938 33.496 35.3805 33.496C38.0685 33.496 40.1378 33.944 41.5885 34.84C43.0818 35.6933 44.1058 36.9947 44.6605 38.744C45.2152 40.4507 45.4925 42.584 45.4925 45.144V47.32H39.2845V45.08C39.2845 43.4587 39.1778 42.1787 38.9645 41.24C38.7512 40.3013 38.3672 39.6187 37.8125 39.192C37.2578 38.7653 36.4685 38.552 35.4445 38.552C34.3352 38.552 33.4818 38.808 32.8845 39.32C32.2872 39.832 31.8818 40.7067 31.6685 41.944C31.4978 43.1387 31.4125 44.7813 31.4125 46.872V58.52C31.4125 61.6773 31.7112 63.7893 32.3085 64.856C32.9058 65.9227 33.9725 66.456 35.5085 66.456C36.6605 66.456 37.4925 66.2 38.0045 65.688C38.5592 65.1333 38.9005 64.3653 39.0285 63.384C39.1992 62.4027 39.2845 61.2933 39.2845 60.056V57.048H45.4925V59.608C45.4925 62.0827 45.1938 64.216 44.5965 66.008C44.0418 67.8 43.0178 69.1653 41.5245 70.104C40.0738 71.0427 38.0258 71.512 35.3805 71.512ZM61.4445 71.512C58.7138 71.512 56.5592 70.9573 54.9805 69.848C53.4018 68.7387 52.2712 67.16 51.5885 65.112C50.9485 63.064 50.6285 60.6533 50.6285 57.88V47.128C50.6285 44.3547 50.9485 41.944 51.5885 39.896C52.2712 37.848 53.4018 36.2693 54.9805 35.16C56.5592 34.0507 58.7138 33.496 61.4445 33.496C64.1752 33.496 66.3085 34.0507 67.8445 35.16C69.4232 36.2693 70.5325 37.848 71.1725 39.896C71.8552 41.944 72.1965 44.3547 72.1965 47.128V57.88C72.1965 60.6533 71.8552 63.064 71.1725 65.112C70.5325 67.16 69.4232 68.7387 67.8445 69.848C66.3085 70.9573 64.1752 71.512 61.4445 71.512ZM61.4445 66.456C62.7672 66.456 63.6845 66.072 64.1965 65.304C64.7512 64.536 65.0712 63.5333 65.1565 62.296C65.2845 61.016 65.3485 59.6933 65.3485 58.328V46.744C65.3485 45.336 65.2845 44.0133 65.1565 42.776C65.0712 41.5387 64.7512 40.536 64.1965 39.768C63.6845 38.9573 62.7672 38.552 61.4445 38.552C60.1218 38.552 59.1832 38.9573 58.6285 39.768C58.0738 40.536 57.7325 41.5387 57.6045 42.776C57.5192 44.0133 57.4765 45.336 57.4765 46.744V58.328C57.4765 59.6933 57.5192 61.016 57.6045 62.296C57.7325 63.5333 58.0738 64.536 58.6285 65.304C59.1832 66.072 60.1218 66.456 61.4445 66.456Z" fill="#4F7363"/>
<path d="M79.16 71L80.696 19.16H84.152L95.096 65.944L106.232 19.16H109.816L111.288 71H108.28L107 27.544L96.44 71H93.88L83.448 27.608L82.168 71H79.16ZM124.782 71.576C123.288 71.576 121.987 71.2347 120.878 70.552C119.768 69.8693 118.894 68.9307 118.254 67.736C117.656 66.4987 117.358 65.0907 117.358 63.512C117.358 61.9333 117.55 60.568 117.934 59.416C118.36 58.2213 119.107 57.112 120.174 56.088C121.24 55.064 122.755 53.9973 124.718 52.888C126.723 51.736 129.304 50.4133 132.462 48.92V46.296C132.462 43.608 132.291 41.5173 131.95 40.024C131.651 38.5307 131.118 37.4853 130.35 36.888C129.624 36.2907 128.622 35.992 127.342 35.992C126.36 35.992 125.422 36.1627 124.526 36.504C123.63 36.8453 122.883 37.528 122.286 38.552C121.731 39.5333 121.454 41.0053 121.454 42.968V43.928H118.126C118.126 40.3867 118.83 37.7627 120.238 36.056C121.688 34.3067 124.099 33.432 127.47 33.432C130.584 33.432 132.76 34.4133 133.998 36.376C135.235 38.3387 135.854 41.5173 135.854 45.912V64.536C135.854 64.8773 135.854 65.5387 135.854 66.52C135.896 67.4587 135.918 68.376 135.918 69.272C135.96 70.168 136.003 70.744 136.046 71H133.102C133.016 70.104 132.91 69.1653 132.782 68.184C132.654 67.2027 132.568 66.4987 132.526 66.072C131.971 67.608 131.011 68.9093 129.646 69.976C128.28 71.0427 126.659 71.576 124.782 71.576ZM125.614 68.76C126.68 68.76 127.64 68.5253 128.494 68.056C129.347 67.544 130.115 66.904 130.798 66.136C131.48 65.3253 132.035 64.472 132.462 63.576V51.416C130.2 52.6107 128.302 53.6347 126.766 54.488C125.272 55.3413 124.078 56.152 123.182 56.92C122.328 57.688 121.71 58.5627 121.326 59.544C120.942 60.4827 120.75 61.6347 120.75 63C120.75 65.2187 121.262 66.7333 122.286 67.544C123.31 68.3547 124.419 68.76 125.614 68.76ZM151.476 71.576C148.702 71.576 146.654 70.936 145.332 69.656C144.009 68.3333 143.134 66.584 142.708 64.408C142.324 62.232 142.132 59.8 142.132 57.112V48.408C142.132 44.7813 142.409 41.88 142.964 39.704C143.518 37.4853 144.478 35.8853 145.844 34.904C147.209 33.9227 149.086 33.432 151.476 33.432C154.036 33.432 155.956 33.9653 157.236 35.032C158.558 36.056 159.433 37.4853 159.86 39.32C160.286 41.112 160.5 43.1387 160.5 45.4V46.872H157.3V45.4C157.3 42.8827 157.086 40.9627 156.66 39.64C156.275 38.2747 155.657 37.336 154.804 36.824C153.95 36.2693 152.841 35.992 151.476 35.992C149.812 35.992 148.553 36.3973 147.7 37.208C146.846 37.976 146.27 39.2347 145.972 40.984C145.673 42.7333 145.524 45.08 145.524 48.024V57.624C145.524 61.6347 145.908 64.536 146.676 66.328C147.486 68.12 149.108 69.016 151.54 69.016C153.204 69.016 154.441 68.6533 155.252 67.928C156.105 67.2027 156.66 66.072 156.916 64.536C157.172 63 157.3 61.016 157.3 58.584V57.176H160.5V58.52C160.5 60.9947 160.308 63.2133 159.924 65.176C159.54 67.1387 158.708 68.696 157.428 69.848C156.148 71 154.164 71.576 151.476 71.576ZM175.22 71.576C172.318 71.576 170.014 70.6373 168.308 68.76C166.601 66.84 165.62 64.2587 165.364 61.016L168.244 60.184C168.457 63.2987 169.161 65.56 170.356 66.968C171.593 68.3333 173.257 69.016 175.348 69.016C177.225 69.016 178.676 68.504 179.7 67.48C180.724 66.4133 181.236 64.92 181.236 63C181.236 61.6773 180.788 60.312 179.892 58.904C179.038 57.4533 177.673 55.9387 175.796 54.36L171.508 50.712C169.673 49.1333 168.329 47.64 167.476 46.232C166.622 44.7813 166.196 43.1387 166.196 41.304C166.196 39.5973 166.537 38.168 167.22 37.016C167.945 35.864 168.926 34.9893 170.164 34.392C171.444 33.752 172.916 33.432 174.58 33.432C177.353 33.432 179.422 34.3067 180.788 36.056C182.153 37.8053 182.878 40.152 182.964 43.096L180.468 43.864C180.425 41.944 180.148 40.408 179.635 39.256C179.166 38.104 178.505 37.272 177.652 36.76C176.841 36.248 175.881 35.992 174.772 35.992C173.15 35.992 171.828 36.4187 170.804 37.272C169.822 38.0827 169.332 39.2987 169.332 40.92C169.332 42.2853 169.588 43.48 170.1 44.504C170.654 45.4853 171.657 46.6373 173.108 47.96L177.524 51.864C178.633 52.8027 179.7 53.8053 180.724 54.872C181.748 55.9387 182.58 57.1333 183.22 58.456C183.902 59.736 184.244 61.272 184.244 63.064C184.244 64.856 183.86 66.392 183.092 67.672C182.366 68.9093 181.321 69.8693 179.956 70.552C178.633 71.2347 177.054 71.576 175.22 71.576Z" fill="black"/>
<path d="M202.263 0C202.263 0 205.444 7.56437 191.813 12.6453C184.407 15.4054 178.718 22.4798 185.511 33.4079C186.073 28.5232 188.485 17.7531 198.856 15.2954C198.856 15.2954 189.203 18.8047 188.351 34.6897C193.311 35.3668 204.944 35.8217 208.397 26.007C212.958 13.0396 202.263 0 202.263 0Z" fill="#3A7F0D"/>
<path d="M188.355 34.6236C198.885 30.5379 206.547 20.9666 207.604 9.54076C205.452 3.89535 202.263 0 202.263 0C202.263 0 205.444 7.56437 191.813 12.6453C184.407 15.4054 178.718 22.4798 185.51 33.4079C186.073 28.5232 188.485 17.7531 198.856 15.2954C198.856 15.2955 189.231 18.796 188.355 34.6236Z" fill="#49A010"/>
<path d="M184.46 12.8975C185.003 12.8975 185.444 12.469 185.444 11.9404C185.444 11.4119 185.003 10.9834 184.46 10.9834C183.916 10.9834 183.475 11.4119 183.475 11.9404C183.475 12.469 183.916 12.8975 184.46 12.8975Z" fill="#3A7F0D"/>
<path d="M187.553 11.667C187.942 11.667 188.257 11.3609 188.257 10.9834C188.257 10.6059 187.942 10.2998 187.553 10.2998C187.165 10.2998 186.85 10.6059 186.85 10.9834C186.85 11.3609 187.165 11.667 187.553 11.667Z" fill="#49A010"/>
<path d="M186.921 6.19825C187.892 6.19825 188.678 5.43313 188.678 4.4893C188.678 3.54547 187.892 2.78035 186.921 2.78035C185.95 2.78035 185.163 3.54547 185.163 4.4893C185.163 5.43313 185.95 6.19825 186.921 6.19825Z" fill="#49A010"/>
<path d="M192.335 8.93264C192.645 8.93264 192.897 8.68779 192.897 8.38576C192.897 8.08373 192.645 7.83888 192.335 7.83888C192.024 7.83888 191.772 8.08373 191.772 8.38576C191.772 8.68779 192.024 8.93264 192.335 8.93264Z" fill="#49A010"/>
<path d="M197.046 6.88183C197.939 6.88183 198.663 6.17791 198.663 5.30958C198.663 4.44125 197.939 3.73734 197.046 3.73734C196.153 3.73734 195.429 4.44125 195.429 5.30958C195.429 6.17791 196.153 6.88183 197.046 6.88183Z" fill="#49A010"/>
</svg>
